<svg id="visual" viewBox="0 0 900 600" width="900" height="600" xmlns="http://www.w3.org/2000/svg" xmlns:xlink="http://www.w3.org/1999/xlink" version="1.1"><path d="M0 103L82 103L82 37L164 37L164 85L245 85L245 79L327 79L327 43L409 43L409 67L491 67L491 49L573 49L573 103L655 103L655 61L736 61L736 73L818 73L818 43L900 43L900 103L900 0L900 0L818 0L818 0L736 0L736 0L655 0L655 0L573 0L573 0L491 0L491 0L409 0L409 0L327 0L327 0L245 0L245 0L164 0L164 0L82 0L82 0L0 0Z" fill="#715df2"></path><path d="M0 217L82 217L82 115L164 115L164 181L245 181L245 121L327 121L327 85L409 85L409 193L491 193L491 109L573 109L573 193L655 193L655 157L736 157L736 121L818 121L818 133L900 133L900 205L900 101L900 41L818 41L818 71L736 71L736 59L655 59L655 101L573 101L573 47L491 47L491 65L409 65L409 41L327 41L327 77L245 77L245 83L164 83L164 35L82 35L82 101L0 101Z" fill="#5e56e2"></path><path d="M0 301L82 301L82 277L164 277L164 433L245 433L245 427L327 427L327 253L409 253L409 367L491 367L491 343L573 343L573 283L655 283L655 247L736 247L736 271L818 271L818 217L900 217L900 427L900 203L900 131L818 131L818 119L736 119L736 155L655 155L655 191L573 191L573 107L491 107L491 191L409 191L409 83L327 83L327 119L245 119L245 179L164 179L164 113L82 113L82 215L0 215Z" fill="#4b4fd1"></path><path d="M0 487L82 487L82 475L164 475L164 541L245 541L245 541L327 541L327 421L409 421L409 463L491 463L491 541L573 541L573 523L655 523L655 475L736 475L736 505L818 505L818 475L900 475L900 535L900 425L900 215L818 215L818 269L736 269L736 245L655 245L655 281L573 281L573 341L491 341L491 365L409 365L409 251L327 251L327 425L245 425L245 431L164 431L164 275L82 275L82 299L0 299Z" fill="#3848c1"></path><path d="M0 601L82 601L82 601L164 601L164 601L245 601L245 601L327 601L327 601L409 601L409 601L491 601L491 601L573 601L573 601L655 601L655 601L736 601L736 601L818 601L818 601L900 601L900 601L900 533L900 473L818 473L818 503L736 503L736 473L655 473L655 521L573 521L573 539L491 539L491 461L409 461L409 419L327 419L327 539L245 539L245 539L164 539L164 473L82 473L82 485L0 485Z" fill="#2341b0"></path></svg>